<svg
        xmlns="http://www.w3.org/2000/svg"
        width="11.5"
        height="28.09"
        viewBox="0 0 6.131 16.042"
      >
        <g
          id="Component_72_3"
          data-name="Component 72 – 3"
          transform="translate(0.643 0.644)"
        >
          <g
            id="Group_78"
            data-name="Group 78"
            transform="translate(-429.146 -1005.304)"
          >
            <path
              id="Path_10"
              data-name="Path 10"
              d="M5736.021-13532.694a4.347,4.347,0,0,0-1.772.981,3.053,3.053,0,0,0-.666,1.682v7.12"
              transform="translate(-5302 14538)"
              fill="none"
              stroke="#7b7171"
              stroke-linecap="round"
              stroke-linejoin="round"
              stroke-width="1"
            />
            <path
              id="Path_11"
              data-name="Path 11"
              d="M5736.021-13522.911a4.347,4.347,0,0,1-1.772-.981,3.053,3.053,0,0,1-.666-1.682v-7.12"
              transform="translate(-5302 14543)"
              fill="none"
              stroke="#7b7171"
              stroke-linecap="round"
              stroke-linejoin="round"
              stroke-width="1"
            />
          </g>
          <g id="Group_79" data-name="Group 79" transform="translate(0 0.002)">
            <path
              id="Path_10-2"
              data-name="Path 10"
              d="M5733.584-13532.7a3.951,3.951,0,0,1,1.694,1.286,5.006,5.006,0,0,1,.636,2.2v9.323"
              transform="translate(-5733.583 13532.694)"
              fill="none"
              stroke="#7b7171"
              stroke-linecap="round"
              stroke-linejoin="round"
              stroke-width="1"
            />
            <path
              id="Path_11-2"
              data-name="Path 11"
              d="M5733.583-13522.911a4.347,4.347,0,0,0,1.772-.981,3.053,3.053,0,0,0,.666-1.682v-7.12"
              transform="translate(-5733.583 13537.694)"
              fill="none"
              stroke="#7b7171"
              stroke-linecap="round"
              stroke-linejoin="round"
              stroke-width="1"
            />
          </g>
        </g>
      </svg>