<svg xmlns="http://www.w3.org/2000/svg" width="24.018" height="24.955" viewBox="0 0 24.018 24.955">
  <g id="Polygon_1" data-name="Polygon 1" transform="translate(14.415) rotate(60)" fill="none">
    <path d="M7.87,3a2,2,0,0,1,3.465,0l6.14,10.643a2,2,0,0,1-1.732,3H3.463a2,2,0,0,1-1.732-3Z" stroke="none"/>
    <path d="M 9.602850914001465 3.002223014831543 C 9.429190635681152 3.002223014831543 8.997160911560059 3.050972938537598 8.73667049407959 3.502492904663086 L 2.596641540527344 14.14521312713623 C 2.336280822753906 14.59650325775146 2.51007080078125 14.99479293823242 2.596881866455078 15.1450834274292 C 2.683681488037109 15.29537296295166 2.94182014465332 15.64494323730469 3.462821006774902 15.64494323730469 L 15.74288082122803 15.64494323730469 C 16.26388168334961 15.64494323730469 16.52202033996582 15.29537296295166 16.60883140563965 15.1450834274292 C 16.69563102722168 14.99479293823242 16.86942100524902 14.59650325775146 16.60906028747559 14.14522361755371 L 10.46903133392334 3.502492904663086 C 10.20854091644287 3.050972938537598 9.776511192321777 3.002223014831543 9.602850914001465 3.002223014831543 M 9.602850914001465 2.002220153808594 C 10.27662086486816 2.002220153808594 10.95039081573486 2.335738182067871 11.33522033691406 3.002773284912109 L 17.47525024414062 13.64550304412842 C 18.24448013305664 14.97883319854736 17.28220176696777 16.64494323730469 15.74288082122803 16.64494323730469 L 3.462821006774902 16.64494323730469 C 1.923500061035156 16.64494323730469 0.9612216949462891 14.97883319854736 1.730451583862305 13.64549255371094 L 7.870480537414551 3.002773284912109 C 8.255311012268066 2.335738182067871 8.929080963134766 2.002220153808594 9.602850914001465 2.002220153808594 Z" stroke="none" fill="#fff"/>
  </g>
</svg>
