<svg xmlns="http://www.w3.org/2000/svg" width="24.676" height="24.777" viewBox="0 0 24.676 24.777">
  <g id="phone-icon" transform="translate(0 0)">
    <path id="phone-icon-2" data-name="phone-icon" d="M2.067,2.051C.389,4.569.49,9.419,3.58,12.862a80.639,80.639,0,0,0,7.18,6.769,8.785,8.785,0,0,0,5.515,2.042,7.918,7.918,0,0,0,.944-.057,5.931,5.931,0,0,0,5.247-3.974,1.533,1.533,0,0,0-.863-1.815L17.487,14a1.7,1.7,0,0,0-.683-.134,1.968,1.968,0,0,0-1.332.492l-1.3,1.257a1.3,1.3,0,0,1-.853.312.776.776,0,0,1-.346-.07,14.089,14.089,0,0,1-3.838-3A14.931,14.931,0,0,1,6.749,9.745,1.18,1.18,0,0,1,7.031,8.56L8.185,7.407A2.158,2.158,0,0,0,8.677,5.4l-1.3-4.122A1.851,1.851,0,0,0,5.739,0,4.439,4.439,0,0,0,2.067,2.051ZM5.78.735a1.143,1.143,0,0,1,.9.762l1.3,4.121a1.426,1.426,0,0,1-.31,1.268L6.511,8.04A1.914,1.914,0,0,0,6.1,10.086a15.649,15.649,0,0,0,2.5,3.275,14.839,14.839,0,0,0,4.043,3.15,1.515,1.515,0,0,0,.676.146,2.019,2.019,0,0,0,1.364-.519l1.3-1.257a1.31,1.31,0,0,1,1.2-.214L21.3,16.5a.813.813,0,0,1,.468.9,5.228,5.228,0,0,1-4.641,3.488,7.168,7.168,0,0,1-.856.051,8.137,8.137,0,0,1-5.034-1.862,80.614,80.614,0,0,1-7.115-6.7C1.362,9.29,1.146,4.758,2.678,2.458A3.748,3.748,0,0,1,5.78.735Z" transform="translate(2.419 -0.154) rotate(9)" fill="#fff"/>
  </g>
</svg>
