<svg xmlns="http://www.w3.org/2000/svg" xmlns:xlink="http://www.w3.org/1999/xlink" width="180" height="184" viewBox="0 0 180 184">
  <defs>
    <filter id="Path_24" x="0" y="0" width="180" height="184" filterUnits="userSpaceOnUse">
      <feOffset dy="1" input="SourceAlpha"/>
      <feGaussianBlur stdDeviation="1.5" result="blur"/>
      <feFlood flood-color="#df2f16" flood-opacity="0.231"/>
      <feComposite operator="in" in2="blur"/>
      <feComposite in="SourceGraphic"/>
    </filter>
    <filter id="Path_23" x="37.984" y="43.628" width="103.21" height="81.197" filterUnits="userSpaceOnUse">
      <feOffset dy="3" input="SourceAlpha"/>
      <feGaussianBlur stdDeviation="3" result="blur-2"/>
      <feFlood flood-color="#b72814" flood-opacity="0.243"/>
      <feComposite operator="in" in2="blur-2"/>
      <feComposite in="SourceGraphic"/>
    </filter>
  </defs>
  <g id="Scroll_Up_Opt1" data-name="Scroll Up Opt1" transform="translate(4.5 3.5)">
    <g id="Scroll_Up_Opt2" data-name="Scroll Up Opt2">
      <g transform="matrix(1, 0, 0, 1, -4.5, -3.5)" filter="url(#Path_24)">
        <g id="Path_24-2" data-name="Path 24" transform="translate(4.5 3.5)" fill="#fff">
          <path d="M 85.5 174.5 C 79.73330688476562 174.5 73.97034454345703 173.9054718017578 68.37126159667969 172.7329406738281 C 62.91458511352539 171.5902099609375 57.54719543457031 169.8851013183594 52.41815185546875 167.6649627685547 C 47.38193511962891 165.4849853515625 42.52439117431641 162.7867126464844 37.98047637939453 159.6451110839844 C 33.47939300537109 156.5330810546875 29.24669647216797 152.9591064453125 25.39997863769531 149.0223846435547 C 21.55306434631348 145.0854949951172 18.06052207946777 140.7534637451172 15.01932621002197 136.1466064453125 C 11.94891262054443 131.4954986572266 9.311760902404785 126.5232391357422 7.181108474731445 121.3679809570312 C 5.011021614074707 116.117301940918 3.344326019287109 110.6225204467773 2.227347850799561 105.036262512207 C 1.081173896789551 99.30397796630859 0.5 93.40391540527344 0.5 87.5 C 0.5 81.59608459472656 1.081173896789551 75.69602203369141 2.227347850799561 69.96373748779297 C 3.344326019287109 64.37747955322266 5.011021614074707 58.88269424438477 7.181108474731445 53.63202285766602 C 9.311760902404785 48.47676086425781 11.94891262054443 43.50450134277344 15.01932621002197 38.85338973999023 C 18.06052207946777 34.24654388427734 21.55306434631348 29.91449928283691 25.39997863769531 25.97760963439941 C 29.24669647216797 22.04089164733887 33.47939300537109 18.4669132232666 37.98047637939453 15.35489177703857 C 42.52439117431641 12.21328258514404 47.38193511962891 9.515021324157715 52.41815185546875 7.335043430328369 C 57.54719543457031 5.114891529083252 62.91458511352539 3.409782648086548 68.37126159667969 2.267065286636353 C 73.97034454345703 1.094521760940552 79.73330688476562 0.5 85.5 0.5 C 91.71595764160156 0.5 97.91408538818359 1.190130472183228 103.9221954345703 2.551239013671875 C 109.7768936157227 3.877565145492554 115.5103454589844 5.85382604598999 120.9633483886719 8.425086975097656 C 126.323127746582 10.95239162445068 131.4541320800781 14.07395648956299 136.2138671875 17.70306587219238 C 140.9391937255859 21.30593490600586 145.3290405273438 25.43202209472656 149.2615203857422 29.96671676635742 C 162.9573669433594 45.75886917114258 170.5 66.19126129150391 170.5 87.5 C 170.5 93.40391540527344 169.9188232421875 99.30397796630859 168.7726593017578 105.036262512207 C 167.6556701660156 110.6225204467773 165.9889831542969 116.117301940918 163.8188934326172 121.3679809570312 C 161.688232421875 126.5232391357422 159.0510864257812 131.4954986572266 155.9806671142578 136.1466064453125 C 152.9394836425781 140.7534637451172 149.4469299316406 145.0854949951172 145.6000213623047 149.0223846435547 C 141.7533111572266 152.9591064453125 137.5206146240234 156.5330810546875 133.0195159912109 159.6451110839844 C 128.4756011962891 162.7867126464844 123.6180648803711 165.4849853515625 118.5818481445312 167.6649627685547 C 113.4528045654297 169.8851013183594 108.0854110717773 171.5902099609375 102.6287384033203 172.7329406738281 C 97.02965545654297 173.9054718017578 91.26669311523438 174.5 85.5 174.5 Z" stroke="none"/>
          <path d="M 85.5 1 C 79.76766204833984 1 74.03920745849609 1.590957641601562 68.47374725341797 2.756454467773438 C 63.05000305175781 3.89227294921875 57.71495819091797 5.587112426757812 52.61677551269531 7.793914794921875 C 47.61054229736328 9.960891723632812 42.7818603515625 12.64314270019531 38.26484680175781 15.76617431640625 C 33.79002380371094 18.86000061035156 29.58200073242188 22.4132080078125 25.75761413574219 26.32704162597656 C 21.93281555175781 30.24130249023438 18.46034240722656 34.54843139648438 15.43661499023438 39.12884521484375 C 12.38377380371094 43.75335693359375 9.761688232421875 48.69720458984375 7.643203735351562 53.82302093505859 C 5.4854736328125 59.04376983642578 3.828277587890625 64.50727081298828 2.717636108398438 70.06177520751953 C 1.577911376953125 75.76186370849609 1 81.62892913818359 1 87.5 C 1 93.37107086181641 1.577911376953125 99.23813629150391 2.717636108398438 104.9382247924805 C 3.828277587890625 110.4927291870117 5.4854736328125 115.9562225341797 7.643203735351562 121.1769790649414 C 9.761688232421875 126.3027954101562 12.38377380371094 131.2466430664062 15.43661499023438 135.8711547851562 C 18.46034240722656 140.4515686035156 21.93281555175781 144.7586975097656 25.75761413574219 148.6729583740234 C 29.58200073242188 152.5867919921875 33.79002380371094 156.1399993896484 38.26484680175781 159.2338256835938 C 42.7818603515625 162.3568572998047 47.61054229736328 165.0391082763672 52.61677551269531 167.2060852050781 C 57.71495819091797 169.4128875732422 63.05000305175781 171.1077270507812 68.47374725341797 172.2435455322266 C 74.03920745849609 173.4090423583984 79.76766204833984 174 85.5 174 C 91.23233795166016 174 96.96079254150391 173.4090423583984 102.526252746582 172.2435455322266 C 107.9499969482422 171.1077270507812 113.2850494384766 169.4128875732422 118.3832244873047 167.2060852050781 C 123.3894500732422 165.0391082763672 128.2181396484375 162.3568572998047 132.7351684570312 159.2338256835938 C 137.2099761962891 156.1399993896484 141.4179992675781 152.5867919921875 145.2423858642578 148.6729583740234 C 149.0671844482422 144.7586975097656 152.5396575927734 140.4515686035156 155.5633850097656 135.8711547851562 C 158.6162261962891 131.2466430664062 161.2383117675781 126.3027954101562 163.3567962646484 121.1769790649414 C 165.5145263671875 115.9562225341797 167.1717224121094 110.4927291870117 168.2823638916016 104.9382247924805 C 169.4220886230469 99.23813629150391 170 93.37107086181641 170 87.5 C 170 66.31159210205078 162.5007781982422 45.99557495117188 148.8837585449219 30.29429626464844 C 144.9736633300781 25.78538513183594 140.60888671875 21.68284606933594 135.9107055664062 18.10066223144531 C 131.1788940429688 14.49284362792969 126.0781097412109 11.38966369628906 120.7500915527344 8.8773193359375 C 115.3299331665039 6.321548461914062 109.6310272216797 4.357208251953125 103.8117294311523 3.03887939453125 C 97.83979797363281 1.68597412109375 91.67884063720703 1 85.5 1 M 85.5 0 C 110.9517517089844 0 133.8060607910156 11.38117980957031 149.6392517089844 29.63912963867188 C 162.86474609375 44.88896179199219 171 65.22220611572266 171 87.5 C 171 135.8249053955078 132.7203369140625 175 85.5 175 C 38.2796630859375 175 0 135.8249053955078 0 87.5 C 0 39.17509460449219 38.2796630859375 0 85.5 0 Z" stroke="none" fill="#df2f16"/>
        </g>
      </g>
    </g>
    <g transform="matrix(1, 0, 0, 1, -4.5, -3.5)" filter="url(#Path_23)">
      <path id="Path_23-2" data-name="Path 23" d="M49.732-117.614,86.9-165.423l34.055,47.809" transform="translate(4.27 223.42)" fill="none" stroke="#df2f16" stroke-linecap="round" stroke-width="10"/>
    </g>
  </g>
</svg>
